<svg width="166" height="51" viewBox="0 0 166 51" fill="none" xmlns="http://www.w3.org/2000/svg">
<path fill-rule="evenodd" clip-rule="evenodd" d="M42.1806 28.8969L37.2614 18.3719H29.6227L38.7522 36.1534L32.6412 49.5096H39.9075L53.6207 18.3719H46.354L42.1806 28.8969Z" fill="#E9333D"/>
<path fill-rule="evenodd" clip-rule="evenodd" d="M79.9644 17.8535C77.0204 17.8535 74.9707 19.0891 73.2565 21.3619C72.176 19.209 70.6108 17.8535 67.7785 17.8535C65.4313 17.8535 63.4185 19.2887 62.3011 20.8039V18.3719H55.6681V38.4259H62.4497V27.7408C62.86 25.3888 64.2015 23.8339 65.6915 23.8339C67.3317 23.8339 67.9278 24.7907 67.9278 27.5417V38.4259H74.7101V27.7408C75.12 25.3888 76.4243 23.8339 77.9143 23.8339C79.5545 23.8339 80.1874 24.7907 80.1874 27.5417V38.4259H86.9701V27.5417C86.9701 21.4019 84.5474 17.8535 79.9644 17.8535Z" fill="#E9333D"/>
<path fill-rule="evenodd" clip-rule="evenodd" d="M114.84 17.8535C111.897 17.8535 109.847 19.0891 108.133 21.3619C107.052 19.209 105.487 17.8535 102.655 17.8535C100.308 17.8535 98.2948 19.2887 97.1767 20.8039V18.3719H90.5436V38.4259H97.326V27.7408C97.7355 25.3888 99.077 23.8339 100.568 23.8339C102.207 23.8339 102.804 24.7907 102.804 27.5417V38.4259H109.586V27.7408C109.996 25.3888 111.3 23.8339 112.791 23.8339C114.43 23.8339 115.064 24.7907 115.064 27.5417V38.4259H121.846V27.5417C121.846 21.4019 119.424 17.8535 114.84 17.8535Z" fill="black"/>
<path fill-rule="evenodd" clip-rule="evenodd" d="M135.295 17.8535C129.258 17.8535 124.675 21.9994 124.675 28.3788C124.675 34.8775 129.705 38.944 135.63 38.944C138.238 38.944 140.772 38.6253 142.934 37.708L141.518 32.6849C139.879 33.3224 138.053 33.602 136.264 33.602C133.804 33.602 132.314 32.8843 131.792 30.6911H145.021C145.356 29.7743 145.654 28.3391 145.654 27.1432C145.654 21.8404 141.518 17.8535 135.295 17.8535ZM131.643 26.3056C132.164 24.2723 133.32 23.0362 135.295 23.0362C137.381 23.0362 138.499 24.2723 138.947 26.3056H131.643Z" fill="black"/>
<path fill-rule="evenodd" clip-rule="evenodd" d="M160.632 17.8535C158.732 17.8535 156.272 19.4084 155.266 21.282V18.3719H148.633V38.4259H155.415V30.8907C155.415 26.5449 156.868 24.7507 159.068 24.7507C160.073 24.7507 160.855 25.03 161.601 25.3888L164.582 19.0891C163.39 18.2522 162.16 17.8535 160.632 17.8535Z" fill="black"/>
<path fill-rule="evenodd" clip-rule="evenodd" d="M22.582 25.7075C22.06 29.7743 19.2653 31.7681 16.0975 31.7681C11.9986 31.7681 9.12945 29.0168 9.12945 24.4719C9.12945 20.0064 11.8501 17.1758 16.21 17.1758C18.8182 17.1758 20.8671 18.2122 22.6561 20.1658L27.1145 15.3575L27.3147 15.1422C26.3809 14.1179 25.3273 13.2254 24.1906 12.4742C24.2035 12.4534 24.2146 12.4334 24.2297 12.4112C25.0625 11.1708 25.7342 9.84556 26.0993 8.37824C26.8178 5.48488 25.7848 3.46056 23.0053 2.3814C22.6462 2.242 22.2766 2.12504 21.9023 2.03292C19.219 1.37112 16.4813 1.35572 13.747 1.43916C11.5408 1.50644 9.32547 1.6072 7.24809 2.50592C5.00238 3.47728 4.04802 5.0508 4.28697 7.3982C4.47771 9.2656 5.32491 10.8758 6.32448 12.4083C6.53496 12.7311 6.56232 12.9212 6.40086 13.1403C3.67266 15.2457 1.797 18.3373 1.2708 22.2048C1.16784 22.9076 1.11846 23.6172 1.12074 24.3282C1.12074 24.3766 1.11807 24.4233 1.11807 24.4719C1.11807 32.6449 7.63941 38.944 14.9426 38.944C15.5014 38.944 16.0269 38.9062 16.5272 38.8411C18.5872 38.7128 20.6308 38.1499 22.5072 37.1474V38.426H28.5065V30.9493V25.7075H22.582ZM24.1541 12.5358C24.194 12.5552 24.2339 12.575 24.2708 12.5947C24.2339 12.575 24.194 12.5552 24.1541 12.5358ZM9.81672 5.36576C11.121 4.81036 12.5157 4.84092 13.8895 4.7534C14.5775 4.70936 15.2705 4.74556 15.9612 4.74556C17.3912 4.82956 18.8387 4.7604 20.2322 5.18612C22.0995 5.75664 22.658 6.96304 21.8906 8.75452C21.8587 8.83016 21.8195 8.90336 21.7838 8.97792C21.2006 10.1884 20.9981 10.5992 20.3918 10.5862C19.6791 10.3412 18.942 10.1489 18.1845 10.0168C18.1222 10.0052 18.0595 9.99332 17.9972 9.9828C17.9177 9.97008 17.8391 9.95796 17.7597 9.9466C17.5595 9.91608 17.3589 9.8996 17.1587 9.87824C14.924 9.5452 12.7106 9.78344 10.5291 10.6303C10.1051 10.7953 9.85281 10.7956 9.59067 10.3672C9.15756 9.66136 8.68533 8.98276 8.46267 8.17024C8.10177 6.85712 8.56146 5.8998 9.81672 5.36576Z" fill="#E9333D"/>
</svg>
